<?xml version="1.0"?><svg fill="#FFFFFF" xmlns="http://www.w3.org/2000/svg"  viewBox="0 0 50 50" width="50px" height="50px">    <path d="M 33.25 2 C 31.311 2 29 3.7237344 29 11.927734 C 29 16.541734 30.237063 20.848297 30.289062 21.029297 L 30.554688 21.9375 L 31.476562 21.722656 C 31.584563 21.697656 34.160219 21.091406 36.949219 19.816406 C 39.370219 18.711406 45 15.614 45 10.75 C 45 8.098 43.789 5 40.375 5 C 39.379 5 38.568281 5.3563281 37.988281 5.7363281 C 36.867281 4.0383281 35.13 2 33.25 2 z M 11.851562 4 C 8.2965625 4 6 5.956375 6 8.984375 C 6 9.959375 6.3550937 10.735594 6.7460938 11.308594 C 5.0440938 12.388594 3 14.129 3 16.25 C 3 17.678 3.9693594 21 12.943359 21 C 18.047359 21 21.9005 19.752219 22.0625 19.699219 L 22.900391 19.423828 L 22.730469 18.558594 C 22.688469 18.343594 21.676469 13.259297 18.980469 8.6542969 C 18.038469 7.0442969 15.334563 4 11.851562 4 z M 20.072266 28.056641 L 19.236328 28.285156 C 18.963328 28.360156 16.494391 29.059094 13.900391 30.621094 C 10.716391 32.537094 7 36.056969 7 39.667969 C 7 43.986969 9.7551875 46 11.617188 46 C 12.836187 46 13.780203 45.555047 14.408203 45.123047 C 15.383203 46.262047 17.144406 48 19.316406 48 C 22.957406 48 23 41.027031 23 40.957031 C 23 34.896031 20.522969 29.096516 20.417969 28.853516 L 20.072266 28.056641 z M 36.742188 29 C 31.500188 29 28.105844 30.000969 27.964844 30.042969 L 27.134766 30.291016 L 27.261719 31.146484 C 27.281719 31.284484 27.779578 34.562438 29.142578 37.773438 C 31.393578 43.078438 34.48275 46 37.84375 46 C 42.70375 46 44 43.161375 44 41.484375 C 44 40.387375 43.619422 39.495047 43.232422 38.873047 C 44.666422 37.885047 47 35.971375 47 33.984375 C 47 29.916375 39.403188 29 36.742188 29 z"/></svg>