<svg fill="#FFFFFF" xmlns="http://www.w3.org/2000/svg"  viewBox="0 0 48 48" width="144px" height="144px"><path d="M 19.955078 2.5488281 A 1.50015 1.50015 0 0 0 18.632812 4.6132812 C 18.632812 4.6132812 19.497677 6.9898753 19.732422 9.8457031 C 18.045129 8.178482 15.541256 6.5488281 12.023438 6.5488281 C 7.452361 6.5488281 4.1757813 8.8105469 4.1757812 8.8105469 A 1.50015 1.50015 0 0 0 4.1308594 11.253906 C 7.3681604 13.652022 10.440812 16.426097 12.326172 19.757812 C 11.475419 19.62677 10.636326 19.542969 9.9257812 19.542969 C 5.6759537 19.542969 2.4252874 22.044202 0.83007812 24.140625 A 1.50015 1.50015 0 0 0 1.5507812 26.472656 C 4.2923154 27.381329 5.7725395 28.689903 6.6035156 29.730469 C 6.9489146 30.162985 6.8592105 30.151344 7.0039062 30.427734 C 4.6776007 31.584678 2.9765625 32.974609 2.9765625 32.974609 A 1.50015 1.50015 0 0 0 4.0234375 35.548828 C 5.4089064 35.548828 6.7606592 35.815511 7.8007812 36.080078 L 6.6738281 38.390625 A 1.50015 1.50015 0 0 0 8.2011719 40.537109 L 15.396484 39.673828 C 16.110978 40.790729 17.322966 41.867515 19.035156 42.927734 C 20.879758 44.069945 23.245076 45.048828 25.853516 45.048828 C 28.476025 45.048828 30.843663 44.070992 32.685547 42.927734 C 34.405784 41.859983 35.618007 40.771256 36.326172 39.652344 L 44.697266 41.511719 A 1.50015 1.50015 0 0 0 46.279297 39.230469 L 43.857422 35.507812 L 46.912109 33.255859 A 1.50015 1.50015 0 0 0 46.923828 30.847656 L 44.548828 29.066406 C 45.662923 28.184458 46.556983 27.29427 47.056641 26.511719 C 47.804245 25.340839 48.003906 24.289062 48.003906 24.289062 A 1.50015 1.50015 0 0 0 46.513672 22.548828 C 46.513672 22.548828 43.557716 22.547028 41.613281 22.548828 C 42.902436 21.190915 44.135012 19.751304 44.824219 19.316406 A 1.50015 1.50015 0 0 0 44.371094 16.587891 C 44.371094 16.587891 39.784004 15.472545 35.701172 17.1875 C 35.360056 16.701377 34.924295 16.170471 34.345703 15.652344 C 33.393964 14.800065 31.975561 14.135288 30.339844 13.826172 C 30.289094 13.527069 30.314464 13.332869 30.214844 12.943359 C 29.969333 11.98346 29.549776 10.799637 28.849609 9.5449219 C 27.449275 7.035491 24.884173 4.2476949 20.544922 2.640625 A 1.50015 1.50015 0 0 0 19.955078 2.5488281 z M 28.064453 25.384766 C 27.879547 27.985012 27.525391 29.628906 27.525391 29.628906 A 1.0001 1.0001 0 0 0 29.029297 30.777344 C 30.273634 29.947785 31.61596 28.790182 32.667969 27.826172 L 32.667969 29.826172 C 31.273989 30.609433 29.103717 32.070188 27.449219 33.228516 A 1.0001 1.0001 0 1 0 28.595703 34.867188 C 28.847831 34.69067 29.167453 34.484629 29.447266 34.292969 C 29.641314 34.735521 29.988064 35.048828 30.402344 35.048828 C 31.020344 35.048828 31.523437 34.383453 31.523438 33.564453 C 31.523438 33.349568 31.486074 33.147343 31.423828 32.962891 C 31.875479 32.667235 32.274519 32.408775 32.667969 32.162109 L 32.667969 32.171875 A 1.0001 1.0001 0 0 0 33.667969 33.171875 C 34.115371 33.171875 34.511054 33.14157 34.886719 33.099609 C 34.877861 33.900064 34.780455 35.894329 33.988281 37.771484 A 1.5003093 1.5003093 0 0 0 33.876953 37.941406 C 33.744365 38.176502 32.604631 39.447164 31.103516 40.378906 C 29.6024 41.310649 27.710006 42.048828 25.853516 42.048828 C 24.016955 42.048828 22.121633 41.309742 20.615234 40.376953 C 19.154971 39.472731 18.047747 38.265866 17.863281 37.984375 C 17.246026 36.626678 17.018761 35.185508 16.929688 34.138672 L 17.583984 34.519531 A 1.0001 1.0001 0 0 0 19.087891 33.65625 L 19.087891 32.136719 C 19.555589 32.407622 19.87529 32.578272 20.433594 32.919922 C 20.360991 33.116553 20.3125 33.330939 20.3125 33.564453 C 20.3125 34.383453 20.813594 35.048828 21.433594 35.048828 C 21.879999 35.048828 22.259152 34.695367 22.439453 34.195312 C 22.788796 34.424968 23.152284 34.659413 23.449219 34.867188 A 1.0001 1.0001 0 1 0 24.595703 33.228516 C 22.903278 32.044274 20.495356 30.578373 19.087891 29.816406 L 19.087891 29.203125 C 19.087891 27.886688 19.551886 26.843335 20.068359 25.998047 C 20.123719 27.201006 20.304081 28.453212 20.902344 29.650391 A 1.0001 1.0001 0 0 0 22.492188 29.921875 C 22.492188 29.921875 25.178228 27.486192 28.064453 25.384766 z M 38.482422 31.96875 C 38.345759 33.658348 37.758899 35.244794 36.423828 36.417969 C 36.413488 36.427069 36.399052 36.436213 36.388672 36.445312 C 36.74647 34.854945 36.89054 33.465972 36.890625 32.935547 L 36.890625 32.933594 L 36.896484 32.929688 L 38.482422 31.96875 z M 13.306641 32.191406 L 13.634766 32.222656 L 14.863281 32.9375 C 14.863567 33.468259 15.007813 34.854075 15.365234 36.443359 C 15.355534 36.434859 15.341701 36.426489 15.332031 36.417969 A 1.0001 1.0001 0 0 0 15.330078 36.417969 C 14.05433 35.298266 13.475662 33.796338 13.306641 32.191406 z M 28.017578 37.835938 A 1.0001 1.0001 0 0 0 27.318359 38.140625 C 27.318359 38.140625 26.962423 38.548828 26.023438 38.548828 C 25.083174 38.548828 24.728516 38.140625 24.728516 38.140625 A 1.0001 1.0001 0 0 0 24.009766 37.839844 A 1.0001 1.0001 0 0 0 23.316406 39.558594 C 23.316406 39.558594 24.3657 40.548828 26.023438 40.548828 C 27.68045 40.548828 28.728516 39.558594 28.728516 39.558594 A 1.0001 1.0001 0 0 0 28.017578 37.835938 z"/></svg>